<?xml version="1.0" encoding="UTF-8" standalone="no"?>
<svg
   xmlns:dc="http://purl.org/dc/elements/1.1/"
   xmlns:cc="http://creativecommons.org/ns#"
   xmlns:rdf="http://www.w3.org/1999/02/22-rdf-syntax-ns#"
   xmlns:svg="http://www.w3.org/2000/svg"
   xmlns="http://www.w3.org/2000/svg"
   xmlns:sodipodi="http://sodipodi.sourceforge.net/DTD/sodipodi-0.dtd"
   xmlns:inkscape="http://www.inkscape.org/namespaces/inkscape"
   width="122"
   height="110"
   id="svg2995"
   version="1.1"
   inkscape:version="0.48.5 r10040"
   sodipodi:docname="callcenter.svg">
  <metadata
     id="metadata3003">
    <rdf:RDF>
      <cc:Work
         rdf:about="">
        <dc:format>image/svg+xml</dc:format>
        <dc:type
           rdf:resource="http://purl.org/dc/dcmitype/StillImage" />
      </cc:Work>
    </rdf:RDF>
  </metadata>
  <defs
     id="defs3001" />
  <sodipodi:namedview
     pagecolor="#ffffff"
     bordercolor="#916F6F"
     borderopacity="1"
     objecttolerance="10"
     gridtolerance="10"
     guidetolerance="10"
     inkscape:pageopacity="0"
     inkscape:pageshadow="2"
     inkscape:window-width="1600"
     inkscape:window-height="837"
     id="namedview2999"
     showgrid="false"
     inkscape:zoom="5.9090909"
     inkscape:cx="61"
     inkscape:cy="55"
     inkscape:window-x="-8"
     inkscape:window-y="-8"
     inkscape:window-maximized="1"
     inkscape:current-layer="svg2995" />
  <path
     style="fill:#916F6F;stroke:none"
     d="M 53.131614,7.9249756 C 29.528835,11.02339 16.040835,27.211111 8.7001543,46.534025 c -0.800986,2.1085 -3.326911,2.69523 -4.297085,4.715133 -1.7069196,3.553753 -1.2231544,11.526109 -0.465093,15.332175 0.762821,3.8299 5.8052461,2.638028 6.7241067,5.567738 2.40256,7.660293 1.846542,18.25441 9.135722,24.09311 3.7453,2.99982 12.204497,-1.43087 16.787855,-0.63612 2.654394,0.46024 5.140345,2.14589 7.70916,2.95132 6.153903,1.929749 12.549798,2.930779 19.068814,2.521489 4.396007,-0.27615 8.914593,-1.139109 13.022653,-2.606959 2.489026,-0.88926 5.242479,-2.77052 7.906553,-2.9768 4.775142,-0.36984 10.222788,2.58888 14.875895,1.58291 2.625275,-0.56709 4.047375,-3.76908 5.137465,-5.76704 2.13314,-3.90863 3.68822,-8.08413 4.63447,-12.364988 0.48579,-2.196604 0.2343,-5.153928 1.21222,-7.18509 1.28368,-2.665972 5.57168,-1.775397 6.51341,-5.605955 0.8775,-3.570519 0.80874,-11.550436 -0.75176,-14.90579 -0.88474,-1.903197 -3.29289,-2.403139 -4.11883,-4.303871 -2.40815,-5.538972 -3.80039,-11.043344 -7.36196,-16.178944 C 93.466158,14.951248 73.764822,5.2163815 53.131614,7.9249756 M 107.54753,49.10014 C 103.83398,49.615286 101.55247,40.986834 99.972055,38.440936 94.513458,29.642604 85.699103,23.110816 75.456046,19.51523 59.113455,13.778534 40.152474,18.194655 27.925452,29.403605 c -4.708561,4.316528 -8.144926,9.366325 -10.605999,15.006469 -0.440378,1.009335 -1.485147,5.01832 -3.169134,4.72368 -2.388429,-0.417919 0.738638,-6.614631 1.215836,-7.708208 C 18.656783,33.884095 23.585984,27.241684 30.342016,21.94056 48.765731,7.4845866 76.631354,9.2967446 93.553098,24.83534 100.88122,31.564458 104.7929,40.135297 107.54753,49.10014 M 22.900539,71.271317 c 7.0637,1.538206 17.185263,5.225841 23.192977,8.985389 2.099759,1.314001 2.588808,3.888417 5.178068,4.766665 2.437281,0.82672 4.902967,-0.795815 6.110119,-2.66811 1.735642,-2.691943 -0.708424,-6.012203 -3.785375,-6.635014 -1.918742,-0.388332 -3.66334,0.741653 -5.580724,0.389236 -6.632006,-1.218911 -13.79404,-5.268578 -19.999055,-7.76352 -2.092794,-0.841427 -5.66775,-1.657952 -6.893085,-3.560903 -1.557518,-2.419001 -1.038074,-7.050303 -0.680832,-9.7157 0.304231,-2.269504 0.308392,-6.171564 2.296429,-7.843734 1.217102,-1.023718 3.301573,-0.627085 4.812412,-0.807073 3.148871,-0.375101 6.257033,-1.078865 9.30187,-1.884377 9.683265,-2.561759 18.934294,-6.720324 27.440532,-11.658758 3.041038,-1.765535 8.879222,-7.185172 12.557488,-6.892259 4.88216,0.388743 10.611154,5.851693 13.524999,9.046865 10.769018,11.80842 13.140988,29.235123 4.118376,42.636897 C 81.457246,97.032821 53.055805,101.1553 34.0628,86.654531 29.282502,83.004947 24.024735,77.05274 22.900539,71.271317 M 53.131614,55.06936 c -0.720274,-0.954434 -2.215192,-2.183783 -2.231837,-3.410995 -0.02135,-1.575847 2.126356,-2.547212 0.993747,-4.206726 -5.699593,-8.351072 -18.692122,7.779711 -6.668463,10.057186 1.157939,0.219275 2.569811,0.192482 3.720694,-0.04939 1.69828,-0.356937 2.926148,-1.354272 4.185859,-2.390071 M 71.270187,45.92708 c -8.499183,2.044559 -4.306991,13.649978 4.185859,11.515589 4.566079,-1.147573 1.85035,-3.228704 1.876585,-5.7843 0.0114,-1.11215 1.252836,-1.857665 1.219002,-2.982555 -0.08829,-2.938667 -5.055942,-3.284098 -7.281356,-2.748734 z"
     id="path2997"
     inkscape:connector-curvature="0" />
</svg>
