<?xml version="1.0" encoding="UTF-8" standalone="no"?>
<svg
   xmlns:dc="http://purl.org/dc/elements/1.1/"
   xmlns:cc="http://creativecommons.org/ns#"
   xmlns:rdf="http://www.w3.org/1999/02/22-rdf-syntax-ns#"
   xmlns:svg="http://www.w3.org/2000/svg"
   xmlns="http://www.w3.org/2000/svg"
   xmlns:sodipodi="http://sodipodi.sourceforge.net/DTD/sodipodi-0.dtd"
   xmlns:inkscape="http://www.inkscape.org/namespaces/inkscape"
   version="1.1"
   width="24"
   height="24"
   viewBox="0 0 24 24"
   id="svg2995"
   inkscape:version="0.48.5 r10040"
   sodipodi:docname="car.svg">
  <metadata
     id="metadata3003">
    <rdf:RDF>
      <cc:Work
         rdf:about="">
        <dc:format>image/svg+xml</dc:format>
        <dc:type
           rdf:resource="http://purl.org/dc/dcmitype/StillImage" />
      </cc:Work>
    </rdf:RDF>
  </metadata>
  <defs
     id="defs3001" />
  <sodipodi:namedview
     pagecolor="#ffffff"
     bordercolor="#666666"
     borderopacity="1"
     objecttolerance="10"
     gridtolerance="10"
     guidetolerance="10"
     inkscape:pageopacity="0"
     inkscape:pageshadow="2"
     inkscape:window-width="1600"
     inkscape:window-height="837"
     id="namedview2999"
     showgrid="false"
     inkscape:zoom="9.8333333"
     inkscape:cx="12"
     inkscape:cy="12"
     inkscape:window-x="-8"
     inkscape:window-y="-8"
     inkscape:window-maximized="1"
     inkscape:current-layer="svg2995" />
  <path
     d="M5,11L6.5,6.5H17.5L19,11M17.5,16A1.5,1.5 0 0,1 16,14.5A1.5,1.5 0 0,1 17.5,13A1.5,1.5 0 0,1 19,14.5A1.5,1.5 0 0,1 17.5,16M6.5,16A1.5,1.5 0 0,1 5,14.5A1.5,1.5 0 0,1 6.5,13A1.5,1.5 0 0,1 8,14.5A1.5,1.5 0 0,1 6.5,16M18.92,6C18.72,5.42 18.16,5 17.5,5H6.5C5.84,5 5.28,5.42 5.08,6L3,12V20A1,1 0 0,0 4,21H5A1,1 0 0,0 6,20V19H18V20A1,1 0 0,0 19,21H20A1,1 0 0,0 21,20V12L18.92,6Z"
     id="path2997"
     style="fill:#ffffff" />
</svg>
