<?xml version="1.0" encoding="UTF-8" standalone="no"?>
<svg
   xmlns:dc="http://purl.org/dc/elements/1.1/"
   xmlns:cc="http://creativecommons.org/ns#"
   xmlns:rdf="http://www.w3.org/1999/02/22-rdf-syntax-ns#"
   xmlns:svg="http://www.w3.org/2000/svg"
   xmlns="http://www.w3.org/2000/svg"
   xmlns:sodipodi="http://sodipodi.sourceforge.net/DTD/sodipodi-0.dtd"
   xmlns:inkscape="http://www.inkscape.org/namespaces/inkscape"
   width="100"
   height="100"
   id="svg3023"
   version="1.1"
   inkscape:version="0.48.5 r10040"
   sodipodi:docname="taxi_270.svg">
  <metadata
     id="metadata3059">
    <rdf:RDF>
      <cc:Work
         rdf:about="">
        <dc:format>image/svg+xml</dc:format>
        <dc:type
           rdf:resource="http://purl.org/dc/dcmitype/StillImage" />
        <dc:title></dc:title>
      </cc:Work>
    </rdf:RDF>
  </metadata>
  <defs
     id="defs3057" />
  <sodipodi:namedview
     pagecolor="#ffffff"
     bordercolor="#666666"
     borderopacity="1"
     objecttolerance="10"
     gridtolerance="10"
     guidetolerance="10"
     inkscape:pageopacity="0"
     inkscape:pageshadow="2"
     inkscape:window-width="1600"
     inkscape:window-height="837"
     id="namedview3055"
     showgrid="false"
     inkscape:zoom="4.1883752"
     inkscape:cx="14.571406"
     inkscape:cy="46.728374"
     inkscape:window-x="-8"
     inkscape:window-y="-8"
     inkscape:window-maximized="1"
     inkscape:current-layer="svg3023" />
  <g
     id="g3067"
     transform="matrix(0.05034486,0.28551992,-0.28551992,0.05034486,82.759004,-14.655771)">
    <path
       id="path3025"
       d="m 139.087,96 c 0,0 161.922,0 161.922,0 27.986,0 26.987,22.999 26.987,22.999 0,0 0,60.996 0,60.996 0,23.999 -26.987,22.999 -26.987,22.999 0,0 -161.922,0 -161.922,0 -72.9646,-3 -66.9675,-38.998 -66.9675,-38.998 0,0 0.9995,-31.998 0.9995,-31.998 0,0 -6.9966,-31.9982 65.968,-35.998 z"
       style="fill:#fec235;stroke:none"
       inkscape:connector-curvature="0" />
    <path
       inkscape:connector-curvature="0"
       id="path3027"
       d="m 184.52867,117.17202 c 0,0 89,0 89,0 0,0 0,65.92028 0,65.92028 0,0 -89,0 -89,0 0,0 0,-65.92028 0,-65.92028 z"
       style="fill:#f3ac07;stroke:none" />
    <path
       id="path3029"
       d="m 268,116.602 c 0,0 7.001,-14.858 24.002,0 18.001,34.668 0,67.356 0,67.356 -17.001,15.849 -24.002,0 -24.002,0 0,0 0,-67.356 0,-67.356 z"
       style="fill:#4a4b4c;stroke:none"
       inkscape:connector-curvature="0" />
    <path
       inkscape:connector-curvature="0"
       id="path3031"
       d="m 151.542,107.87321 c 0,0 26.322,-0.95194 37.458,9.51654 0,15.2272 0,65.66569 0,65.66569 -5.062,8.56554 -37.458,8.56554 -37.458,8.56554 -39.482,-46.63263 0,-83.74777 0,-83.74777 z"
       style="fill:#1c1d1f;stroke:none" />
    <path
       inkscape:connector-curvature="0"
       id="path3033"
       d="m 206,127 c 0,0 10.50629,0 10.50629,0 0,0 0,45 0,45 0,0 -10.50629,0 -10.50629,0 0,0 0,-45 0,-45 z"
       style="fill:#ffffff;stroke:none" />
    <path
       id="path3035"
       d="m 161,98 c 0,-5 3,-8 7,-8 3,0 6,3 6,8 0,4 -3,7 -6,7 -4,0 -7,-3 -7,-7 m 0,105 c 0,-5 3,-8 7,-8 3,0 6,3 6,8 0,4 -3,7 -6,7 -4,0 -7,-3 -7,-7 z"
       style="fill:#e08300;stroke:none"
       inkscape:connector-curvature="0" />
    <path
       id="path3039"
       d="m 155,100 c 0,0 67,0 67,0 0,0 0,16 0,16 -48,0 -67,-16 -67,-16 m 123,0 c 0,0 -59,0 -59,0 0,0 0,16 0,16 42,0 59,-16 59,-16 z"
       style="fill:#4a4b4c;stroke:none"
       inkscape:connector-curvature="0" />
    <path
       id="path3041"
       d="m 155,200 c 0,0 67,0 67,0 0,0 0,-16 0,-16 -48,0 -67,16 -67,16 m 123,0 c 0,0 -59,0 -59,0 0,0 0,-16 0,-16 42,0 59,16 59,16 z"
       style="fill:#1f1f1f;stroke:none"
       inkscape:connector-curvature="0" />
    <path
       id="path3045"
       d="m 304.895,101 c 0,0 10.07,1 12.084,6 3.021,3 3.021,9 3.021,9 0,0 -15.105,-6 -15.105,-6 0,0 -2.014,-3 0,-9 m 0,99 c 0,0 10.07,-1 12.084,-6 3.021,-3 3.021,-9 3.021,-9 0,0 -15.105,6 -15.105,6 0,0 -2.014,3 0,9 z"
       style="fill:#aa0c07;stroke:none"
       inkscape:connector-curvature="0" />
    <path
       id="path3047"
       d="m 76,129 c 0,0 9,-2 9,-2 0,0 0,47 0,47 0,0 -9,-4 -9,-4 0,0 0,-41 0,-41 z"
       style="fill:#d48317;stroke:none"
       inkscape:connector-curvature="0" />
    <path
       inkscape:connector-curvature="0"
       id="path3049"
       d="m 161.13217,108.85035 c 0,0 22,2 28,10 -2,-8 0,44 0,44 -27,-28 -28,-54 -28,-54 z"
       style="fill:#4a4b4c;fill-opacity:1;stroke:none" />
    <path
       inkscape:connector-curvature="0"
       id="path3053"
       d="m 133.86783,151.01328 c 0,0 27,-11.06573 27,-11.06573 0,0 1,1.38321 1,1.38321 0,0 -27,11.06574 -27,11.06574 0,0 -1,-1.38322 -1,-1.38322 z"
       style="fill:#818183;stroke:none" />
    <path
       inkscape:connector-curvature="0"
       id="path3043"
       d="m 84,112.56499 c 0,0 10,-4.71464 10,-4.71464 0,0 -4,8.48635 -4,8.48635 0,0 -11,11.31513 -11,11.31513 0,0 5,-15.08684 5,-15.08684 m 0,73.54834 c 0,0 10,4.71464 10,4.71464 0,0 -4,-8.48635 -4,-8.48635 0,0 -11,-11.31513 -11,-11.31513 0,0 5,15.08684 5,15.08684 z"
       style="fill:#ffffff;stroke:none" />
    <path
       inkscape:connector-curvature="0"
       id="path3037"
       d="m 76,127 c 0,0 31.72345,-20 78.82797,-27 -42.29793,17 -74.021386,36 -74.021386,36 0,0 -4.806584,0 -4.806584,0 0,0 0,-9 0,-9 m 0,46 c 0,0 31.72345,20 78.82797,27 -42.29793,-17 -74.021386,-36 -74.021386,-36 0,0 -4.806584,0 -4.806584,0 0,0 0,9 0,9 z"
       style="fill:#d48317;stroke:none" />
  </g>
</svg>
