<?xml version="1.0" encoding="UTF-8" standalone="no"?>
<svg
   xmlns:dc="http://purl.org/dc/elements/1.1/"
   xmlns:cc="http://creativecommons.org/ns#"
   xmlns:rdf="http://www.w3.org/1999/02/22-rdf-syntax-ns#"
   xmlns:svg="http://www.w3.org/2000/svg"
   xmlns="http://www.w3.org/2000/svg"
   xmlns:xlink="http://www.w3.org/1999/xlink"
   xmlns:sodipodi="http://sodipodi.sourceforge.net/DTD/sodipodi-0.dtd"
   xmlns:inkscape="http://www.inkscape.org/namespaces/inkscape"
   width="2100"
   height="1400"
   id="svg2"
   version="1.1"
   inkscape:version="0.91 r13725"
   sodipodi:docname="Flag_of_Zimbabwe.svg">
  <metadata
     id="metadata48">
    <rdf:RDF>
      <cc:Work
         rdf:about="">
        <dc:format>image/svg+xml</dc:format>
        <dc:type
           rdf:resource="http://purl.org/dc/dcmitype/StillImage" />
        <dc:title></dc:title>
      </cc:Work>
    </rdf:RDF>
  </metadata>
  <defs
     id="defs46" />
  <sodipodi:namedview
     pagecolor="#ffffff"
     bordercolor="#666666"
     borderopacity="1"
     objecttolerance="10"
     gridtolerance="10"
     guidetolerance="10"
     inkscape:pageopacity="0"
     inkscape:pageshadow="2"
     inkscape:window-width="1600"
     inkscape:window-height="837"
     id="namedview44"
     showgrid="false"
     inkscape:zoom="0.16666667"
     inkscape:cx="1050"
     inkscape:cy="594.237"
     inkscape:window-x="-8"
     inkscape:window-y="-8"
     inkscape:window-maximized="1"
     inkscape:current-layer="svg2" />
  <g
     id="g3452"
     transform="matrix(9.9761906,0,0,11.238095,0,-12)">
    <rect
       height="126"
       width="252"
       id="green_stripes"
       x="0"
       y="0"
       style="fill:#319208" />
    <rect
       y="18"
       height="90"
       width="252"
       id="yellow_stripes"
       x="0"
       style="fill:#ffd200" />
    <rect
       y="36"
       height="54"
       width="252"
       id="red_stripes"
       x="0"
       style="fill:#de2010" />
    <rect
       y="54"
       height="18"
       width="252"
       id="black_stripe"
       x="0"
       style="fill:#000000" />
    <path
       id="path3382"
       d="M 4.5825757,0 88.582576,63 4.5825757,126 0,126 0,0 Z"
       inkscape:connector-curvature="0"
       style="fill:#000000" />
    <path
       id="path3384"
       d="M 0,0 84,63 0,126"
       inkscape:connector-curvature="0"
       style="fill:#ffffff" />
    <g
       id="star">
      <g
         transform="matrix(32,0,0,32,34,63)"
         id="upper_star_part"
         style="fill:#de2010">
        <g
           id="g3388">
          <polygon
             transform="matrix(0.89673608,0.44256571,-0.44256571,0.89673608,0,-1)"
             points="0,1 0.75,1 0,0 "
             id="triangle_ur" />
          <use
             transform="scale(-1,1)"
             xlink:href="#triangle_ur"
             id="triangle_ul"
             x="0"
             y="0"
             width="100%"
             height="100%" />
          <polygon
             transform="matrix(0.94217472,0.33512206,-0.33512206,0.94217472,0,-1)"
             points="0,1 0.75,1 0,0 "
             id="triangle2_ur" />
          <use
             transform="scale(-1,1)"
             xlink:href="#triangle2_ur"
             id="triangle2_ul"
             x="0"
             y="0"
             width="100%"
             height="100%" />
        </g>
        <use
           id="use3394"
           transform="matrix(0.30901699,0.95105652,-0.95105652,0.30901699,0,0)"
           xlink:href="#triangle_ur"
           x="0"
           y="0"
           width="100%"
           height="100%" />
        <use
           id="use3396"
           transform="matrix(0.30901699,-0.95105652,0.95105652,0.30901699,0,0)"
           xlink:href="#triangle_ul"
           x="0"
           y="0"
           width="100%"
           height="100%" />
        <use
           id="use3398"
           transform="matrix(0.30901699,0.95105652,-0.95105652,0.30901699,0,0)"
           xlink:href="#triangle2_ur"
           x="0"
           y="0"
           width="100%"
           height="100%" />
        <use
           id="use3400"
           transform="matrix(0.30901699,-0.95105652,0.95105652,0.30901699,0,0)"
           xlink:href="#triangle2_ul"
           x="0"
           y="0"
           width="100%"
           height="100%" />
      </g>
      <g
         transform="matrix(27.5,0,0,27.5,34,63)"
         id="lower_star_part"
         style="fill:#de2010">
        <g
           id="cone_l">
          <polygon
             transform="matrix(0.91194245,0.41031813,-0.41031813,0.91194245,0,-1)"
             points="0,1 0.5,1 0,0 "
             id="triangle_l" />
          <use
             id="use3405"
             transform="scale(-1,1)"
             xlink:href="#triangle_l"
             x="0"
             y="0"
             width="100%"
             height="100%" />
        </g>
        <use
           id="use3407"
           transform="matrix(-0.80901699,0.58778525,-0.58778525,-0.80901699,0,0)"
           xlink:href="#cone_l"
           x="0"
           y="0"
           width="100%"
           height="100%" />
        <use
           id="use3409"
           transform="matrix(-0.80901699,-0.58778525,0.58778525,-0.80901699,0,0)"
           xlink:href="#cone_l"
           x="0"
           y="0"
           width="100%"
           height="100%" />
      </g>
    </g>
    <g
       id="bird">
      <path
         id="path3412"
         style="overflow:visible;fill:#ffc618"
         d="m 28.63541,55.109321 c 1.976151,4.30526 2.470343,4.58772 7.410824,6.28162 4.940481,1.69369 18.897601,3.29951 20.273897,3.45831 -0.899886,-0.89988 -16.621419,-12.54545 -19.850421,-14.87457 -3.229003,-2.32911 -4.128888,-3.3878 -4.128888,-3.3878 0,0 -2.911395,-5.2405 -3.91715,-6.7756 -1.005754,-1.5351 -2.858461,-3.70541 -5.293445,-3.70541 -2.434985,0 -3.917047,1.42923 -4.622874,3.97008 -0.388221,0.10587 -2.470344,1.3765 -2.39973,2.68208 0.599959,-0.07072 4.375985,-1.12941 5.681667,3.1407 1.305785,4.27011 1.376295,11.25725 0.03525,14.71577 -1.341041,3.45852 -3.42306,6.06967 -3.42306,9.10472 0,0.42347 0.282248,1.27042 0.988075,1.27042 0.246993,1.34115 2.223247,10.90449 2.223247,10.90449 l 28.161235,0 4.472961,-17.29197"
         inkscape:connector-curvature="0" />
      <g
         id="g3414"
         style="overflow:visible;fill:none;stroke:#000000;stroke-width:0.21173774">
        <path
           id="path3416"
           d="m 28.63541,55.109321 c 1.976151,4.30526 2.470343,4.58772 7.410824,6.28162 4.940481,1.69369 18.897601,3.29951 20.273897,3.45831 -0.899886,-0.89988 -16.621419,-12.54545 -19.850421,-14.87457 -3.229003,-2.32911 -4.128888,-3.3878 -4.128888,-3.3878 0,0 -2.911395,-5.2405 -3.91715,-6.7756 -1.005754,-1.5351 -2.858461,-3.70541 -5.293445,-3.70541 -2.434985,0 -3.917047,1.42923 -4.622874,3.97008 -0.388221,0.10587 -2.470344,1.3765 -2.39973,2.68208 0.599959,-0.07072 4.375985,-1.12941 5.681667,3.1407 1.305785,4.27011 1.376295,11.25725 0.03525,14.71577 -1.341041,3.45852 -3.42306,6.06967 -3.42306,9.10472 0,0.42347 0.282248,1.27042 0.988075,1.27042 0.246993,1.34115 2.223247,10.90449 2.223247,10.90449 l 28.161235,0 4.472961,-17.29197"
           inkscape:connector-curvature="0" />
        <path
           id="path3418"
           d="m 19.38956,70.989641 c 0,0 5.999272,-0.35276 7.622665,-0.35276 1.623185,0 16.733905,0.01862 25.164751,1.96788"
           inkscape:connector-curvature="0" />
        <path
           id="path3420"
           d="m 21.508178,70.870751 c 0,0 -0.601095,-0.72806 -0.212978,-2.17486 0.388118,-1.44681 4.622977,-5.18778 4.622977,-10.48102"
           inkscape:connector-curvature="0" />
        <path
           id="path3422"
           d="m 25.141736,70.636881 c 0,0 -0.493986,-2.36447 4.905329,-4.37598 1.517522,-0.45883 5.857942,-2.89381 5.999169,-4.86996"
           inkscape:connector-curvature="0" />
        <path
           id="path3424"
           d="m 29.473056,66.485261 c 0,0 13.243334,0.05789 23.724149,2.17527"
           inkscape:connector-curvature="0" />
        <path
           id="path3426"
           d="m 32.792626,64.905291 c 0,0 4.550502,0.1557 5.291585,-0.05604 0.741082,-0.21174 2.052866,-0.76217 2.574765,-2.31319"
           inkscape:connector-curvature="0" />
        <path
           id="path3428"
           d="m 35.490423,64.959261 c 0,0 2.434159,-1.26547 2.910981,-2.91098"
           inkscape:connector-curvature="0" />
        <path
           id="path3430"
           d="m 28.141424,81.894131 c 0,0 -1.041113,-7.21645 -1.25285,-11.25725 l 2.717439,2.59379 2.874796,-2.51418 2.471583,2.63783 2.857635,-2.42485 2.470963,2.77761 2.829928,-2.40665 2.25178,2.61839 2.822278,-2.04087 3.355133,3.18868"
           inkscape:connector-curvature="0" />
        <path
           id="path3432"
           d="m 50.9508,77.345081 c -10.080498,-1.4437 -23.570309,-1.35003 -23.570309,-1.35003"
           inkscape:connector-curvature="0" />
        <path
           id="path3434"
           d="m 22.693931,51.052191 c 0,0 8.199879,-3.91839 9.646891,-4.46531"
           inkscape:connector-curvature="0" />
      </g>
      <g
         id="g3436"
         transform="matrix(0.211738,0,0,0.211738,16,36)"
         style="overflow:visible;fill:none;stroke:#000000">
        <polyline
           id="polyline3438"
           points="52.4873047,177.0859375 65.5048828,188.9375 77.2666016,177.1757813 89.1630859,189.4423828 102.0087891,178.0839844 113.8359375,190.5136719 127.1748047,179.5009766 138.0722656,192.2285156 151.3417969,182.0839844 165.2890625,194.4033203" />
        <circle
           id="circle3440"
           r="5.1665039"
           cy="154.58398"
           cx="89.425293" />
        <circle
           id="circle3442"
           r="5.1665039"
           cy="156.04688"
           cx="111.23682" />
        <circle
           id="circle3444"
           r="4"
           cy="16.5"
           cx="30.049805" />
      </g>
    </g>
  </g>
</svg>
